<?xml version="1.0" encoding="UTF-8" standalone="no"?><!DOCTYPE svg PUBLIC "-//W3C//DTD SVG 1.1//EN" "http://www.w3.org/Graphics/SVG/1.1/DTD/svg11.dtd"><svg width="100%" height="100%" viewBox="0 0 59 59" version="1.1" xmlns="http://www.w3.org/2000/svg" xmlns:xlink="http://www.w3.org/1999/xlink" xml:space="preserve" xmlns:serif="http://www.serif.com/" style="fill-rule:evenodd;clip-rule:evenodd;stroke-linejoin:round;stroke-miterlimit:2;"><path d="M29.167,50.379c0.703,-0 1.377,0.279 1.875,0.776c0.497,0.498 0.776,1.172 0.776,1.875l0,2.652c0,0.703 -0.279,1.378 -0.776,1.875c-0.498,0.497 -1.172,0.776 -1.875,0.776c-0.704,0 -1.378,-0.279 -1.875,-0.776c-0.497,-0.497 -0.777,-1.172 -0.777,-1.875l0,-2.652c0,-0.703 0.28,-1.377 0.777,-1.875c0.497,-0.497 1.171,-0.776 1.875,-0.776Zm18.749,-6.213l1.874,1.875c0.253,0.244 0.455,0.537 0.594,0.861c0.139,0.323 0.212,0.671 0.216,1.023c0.003,0.352 -0.065,0.701 -0.198,1.027c-0.133,0.326 -0.33,0.622 -0.579,0.871c-0.249,0.249 -0.545,0.446 -0.871,0.579c-0.326,0.133 -0.675,0.201 -1.027,0.198c-0.352,-0.004 -0.7,-0.077 -1.023,-0.216c-0.324,-0.139 -0.617,-0.341 -0.861,-0.594l-1.875,-1.874c-0.483,-0.501 -0.75,-1.17 -0.744,-1.866c0.006,-0.695 0.285,-1.36 0.777,-1.851c0.491,-0.492 1.156,-0.771 1.851,-0.777c0.696,-0.006 1.365,0.261 1.866,0.744Zm-33.749,0c0.497,0.497 0.776,1.172 0.776,1.875c0,0.703 -0.279,1.377 -0.776,1.875l-1.875,1.874c-0.5,0.483 -1.169,0.751 -1.865,0.744c-0.695,-0.006 -1.36,-0.285 -1.852,-0.776c-0.491,-0.492 -0.77,-1.157 -0.776,-1.852c-0.006,-0.695 0.261,-1.365 0.744,-1.865l1.875,-1.875c0.497,-0.497 1.171,-0.776 1.874,-0.776c0.704,-0 1.378,0.279 1.875,0.776Zm15,0.91c3.146,-0 6.222,-0.933 8.838,-2.681c2.616,-1.749 4.656,-4.233 5.86,-7.14c1.204,-2.907 1.519,-6.106 0.905,-9.192c-0.614,-3.086 -2.129,-5.921 -4.354,-8.146c-2.225,-2.225 -5.06,-3.74 -8.146,-4.354c-3.086,-0.614 -6.284,-0.299 -9.191,0.906c-2.907,1.204 -5.392,3.243 -7.14,5.859c-1.748,2.616 -2.681,5.692 -2.681,8.839c0.004,4.218 1.681,8.262 4.664,11.244c2.983,2.983 7.027,4.661 11.245,4.665Zm29.166,-15.909c0,0.703 -0.279,1.377 -0.776,1.875c-0.497,0.497 -1.172,0.776 -1.875,0.776l-2.652,0c-0.703,0 -1.377,-0.279 -1.875,-0.776c-0.497,-0.498 -0.776,-1.172 -0.776,-1.875c-0,-0.704 0.279,-1.378 0.776,-1.875c0.498,-0.497 1.172,-0.777 1.875,-0.777l2.652,0c0.703,0 1.378,0.28 1.875,0.777c0.497,0.497 0.776,1.171 0.776,1.875Zm-58.333,-0c0,-0.704 0.279,-1.378 0.777,-1.875c0.497,-0.497 1.171,-0.777 1.875,-0.777l2.651,0c0.703,0 1.378,0.28 1.875,0.777c0.497,0.497 0.777,1.171 0.777,1.875c-0,0.703 -0.28,1.377 -0.777,1.875c-0.497,0.497 -1.172,0.776 -1.875,0.776l-2.651,0c-0.704,0 -1.378,-0.279 -1.875,-0.776c-0.498,-0.498 -0.777,-1.172 -0.777,-1.875Zm8.543,-16.875c-0.483,-0.5 -0.75,-1.169 -0.744,-1.865c0.006,-0.695 0.285,-1.36 0.776,-1.852c0.492,-0.491 1.157,-0.77 1.852,-0.776c0.696,-0.006 1.365,0.261 1.865,0.744l1.875,1.875c0.253,0.244 0.455,0.537 0.594,0.86c0.139,0.324 0.212,0.672 0.215,1.024c0.003,0.352 -0.064,0.701 -0.197,1.027c-0.133,0.326 -0.33,0.622 -0.579,0.871c-0.249,0.249 -0.545,0.446 -0.871,0.579c-0.326,0.133 -0.675,0.2 -1.027,0.197c-0.352,-0.003 -0.7,-0.076 -1.024,-0.215c-0.323,-0.139 -0.616,-0.341 -0.86,-0.594l-1.875,-1.875Zm35.623,1.875c-0.497,-0.497 -0.776,-1.171 -0.776,-1.875c-0,-0.703 0.279,-1.377 0.776,-1.874l1.875,-1.875c0.5,-0.483 1.17,-0.75 1.865,-0.744c0.695,0.006 1.36,0.285 1.852,0.776c0.491,0.492 0.77,1.157 0.776,1.852c0.007,0.696 -0.261,1.365 -0.744,1.865l-1.874,1.875c-0.498,0.497 -1.172,0.776 -1.875,0.776c-0.703,0 -1.378,-0.279 -1.875,-0.776Zm-17.651,-8.864l0,-2.651c0,-0.704 0.28,-1.378 0.777,-1.875c0.497,-0.498 1.171,-0.777 1.875,-0.777c0.703,0 1.377,0.279 1.875,0.777c0.497,0.497 0.776,1.171 0.776,1.875l0,2.651c0,0.703 -0.279,1.378 -0.776,1.875c-0.498,0.497 -1.172,0.777 -1.875,0.777c-0.704,-0 -1.378,-0.28 -1.875,-0.777c-0.497,-0.497 -0.777,-1.172 -0.777,-1.875Z" style="fill:#9d9d9d;fill-rule:nonzero;"/></svg>