<svg width="30" height="30" viewBox="0 0 30 30" fill="none" xmlns="http://www.w3.org/2000/svg">
<path d="M27.1885 25.0806L19.9182 17.8091C21.0898 16.199 21.7201 14.2585 21.7182 12.2673C21.7182 7.05537 17.4777 2.81494 12.2658 2.81494C7.05391 2.81494 2.81348 7.05537 2.81348 12.2673C2.81348 17.4792 7.05391 21.7196 12.2658 21.7196C14.2571 21.7215 16.1975 21.0913 17.8076 19.9196L25.0791 27.1899L27.1885 25.0806ZM12.2658 18.7343C10.9866 18.7344 9.73608 18.3552 8.67241 17.6445C7.60873 16.9339 6.77967 15.9238 6.29008 14.742C5.8005 13.5602 5.67237 12.2597 5.9219 11.0051C6.17143 9.75044 6.78742 8.59797 7.69197 7.69343C8.59651 6.78889 9.74898 6.1729 11.0036 5.92337C12.2583 5.67383 13.5587 5.80196 14.7405 6.29155C15.9224 6.78114 16.9325 7.61019 17.6431 8.67387C18.3537 9.73755 18.7329 10.9881 18.7328 12.2673C18.7308 13.9818 18.0488 15.6256 16.8364 16.8379C15.6241 18.0503 13.9804 18.7323 12.2658 18.7343Z" fill="#9D9D9D"/>
</svg>
